<svg width="35" height="35" viewBox="0 0 35 35" fill="none" xmlns="http://www.w3.org/2000/svg">
<path d="M0 9.8799C0 6.41144 -2.13002e-06 4.69473 0.665663 3.3634C1.26126 2.20724 2.2072 1.26127 3.36336 0.665674C4.69469 8.56183e-06 6.41141 0 9.87988 0H25.1201C28.5886 0 30.3053 8.56183e-06 31.6366 0.665674C32.7928 1.26127 33.7387 2.20724 34.3343 3.3634C35 4.69473 35 6.41144 35 9.8799V25.1201C35 28.5886 35 30.3053 34.3343 31.6366C33.7387 32.7928 32.7928 33.7387 31.6366 34.3343C30.3053 35 28.5886 35 25.1201 35H9.87988C6.41141 35 4.69469 35 3.36336 34.3343C2.2072 33.7387 1.26126 32.7928 0.665663 31.6366C-2.13002e-06 30.3053 0 28.5886 0 25.1201V9.8799Z" fill="white"/>
</svg>
