<svg width="19" height="20" viewBox="0 0 19 20" fill="none" xmlns="http://www.w3.org/2000/svg">
<path d="M16.4076 0.258511H3.11161C2.36372 0.258511 1.78202 0.867923 1.78202 1.58812V3.38861H0.757123C0.452424 3.38861 0.203125 3.63791 0.203125 3.94261C0.203125 4.24731 0.452424 4.49661 0.757123 4.49661H1.78202V7.29429H0.757123C0.452424 7.29429 0.203125 7.54359 0.203125 7.84829C0.203125 8.15299 0.452424 8.40229 0.757123 8.40229H1.78202V11.2H0.757123C0.452424 11.2 0.203125 11.4493 0.203125 11.754C0.203125 12.0587 0.452424 12.308 0.757123 12.308H1.78202V15.1057H0.757123C0.452424 15.1057 0.203125 15.355 0.203125 15.6597C0.203125 15.9644 0.452424 16.2137 0.757123 16.2137H1.78202V18.0142C1.78202 18.7621 2.39142 19.3438 3.11161 19.3438H16.4076C17.571 19.3438 18.5405 18.402 18.5405 17.2109V2.336C18.5405 1.17261 17.5987 0.203125 16.4076 0.203125V0.258511ZM4.91211 18.2634H3.11161C2.97311 18.2634 2.89001 18.1527 2.89001 18.0419V16.2414H3.91491C4.21961 16.2414 4.46891 15.9921 4.46891 15.6874C4.46891 15.3827 4.21961 15.1334 3.91491 15.1334H2.89001V12.3357H3.91491C4.21961 12.3357 4.46891 12.0864 4.46891 11.7817C4.46891 11.477 4.21961 11.2277 3.91491 11.2277H2.89001V8.42998H3.91491C4.21961 8.42998 4.46891 8.18068 4.46891 7.87598C4.46891 7.57129 4.21961 7.32199 3.91491 7.32199H2.89001V4.5243H3.91491C4.21961 4.5243 4.46891 4.275 4.46891 3.9703C4.46891 3.66561 4.21961 3.41631 3.91491 3.41631H2.89001V1.61581C2.89001 1.47731 3.00081 1.39423 3.11161 1.39423H4.91211V18.2912V18.2634ZM17.4325 17.2386C17.4325 17.7926 16.9893 18.2634 16.4076 18.2634H5.9924V1.36651H16.4076C16.9616 1.36651 17.4325 1.80973 17.4325 2.39142V17.2663V17.2386Z" fill="#990066"/>
</svg>
