<svg width="50" height="50" viewBox="0 0 50 50" fill="none" xmlns="http://www.w3.org/2000/svg">
<g filter="url(#filter0_d_887_2165)">
<path d="M7 17.1622C7 13.5946 7 11.8289 7.68468 10.4595C8.2973 9.27031 9.27027 8.29731 10.4595 7.68469C11.8288 7.00001 13.5946 7 17.1622 7H32.8378C36.4054 7 38.1712 7.00001 39.5405 7.68469C40.7297 8.29731 41.7027 9.27031 42.3153 10.4595C43 11.8289 43 13.5946 43 17.1622V32.8379C43 36.4054 43 38.1712 42.3153 39.5406C41.7027 40.7297 40.7297 41.7027 39.5405 42.3153C38.1712 43 36.4054 43 32.8378 43H17.1622C13.5946 43 11.8288 43 10.4595 42.3153C9.27027 41.7027 8.2973 40.7297 7.68468 39.5406C7 38.1712 7 36.4054 7 32.8379V17.1622Z" fill="white"/>
<path d="M32.1049 15.4945H18.4291C17.6598 15.4945 17.0615 16.1213 17.0615 16.8621V18.714H16.0073C15.6939 18.714 15.4375 18.9704 15.4375 19.2838C15.4375 19.5972 15.6939 19.8537 16.0073 19.8537H17.0615V22.7313H16.0073C15.6939 22.7313 15.4375 22.9877 15.4375 23.3011C15.4375 23.6145 15.6939 23.8709 16.0073 23.8709H17.0615V26.7485H16.0073C15.6939 26.7485 15.4375 27.005 15.4375 27.3184C15.4375 27.6318 15.6939 27.8882 16.0073 27.8882H17.0615V30.7659H16.0073C15.6939 30.7659 15.4375 31.0223 15.4375 31.3357C15.4375 31.6491 15.6939 31.9055 16.0073 31.9055H17.0615V33.7574C17.0615 34.5267 17.6883 35.125 18.4291 35.125H32.1049C33.3016 35.125 34.2988 34.1563 34.2988 32.9312V17.6313C34.2988 16.4347 33.3301 15.4375 32.1049 15.4375V15.4945ZM20.281 34.0138H18.4291C18.2866 34.0138 18.2012 33.8999 18.2012 33.7859V31.934H19.2553C19.5687 31.934 19.8252 31.6776 19.8252 31.3642C19.8252 31.0508 19.5687 30.7943 19.2553 30.7943H18.2012V27.9167H19.2553C19.5687 27.9167 19.8252 27.6603 19.8252 27.3469C19.8252 27.0335 19.5687 26.7771 19.2553 26.7771H18.2012V23.8994H19.2553C19.5687 23.8994 19.8252 23.643 19.8252 23.3296C19.8252 23.0162 19.5687 22.7598 19.2553 22.7598H18.2012V19.8821H19.2553C19.5687 19.8821 19.8252 19.6257 19.8252 19.3123C19.8252 18.9989 19.5687 18.7425 19.2553 18.7425H18.2012V16.8906C18.2012 16.7481 18.3151 16.6626 18.4291 16.6626H20.281V34.0424V34.0138ZM33.1591 32.9597C33.1591 33.5295 32.7032 34.0138 32.1049 34.0138H21.3922V16.6341H32.1049C32.6748 16.6341 33.1591 17.09 33.1591 17.6883V32.9882V32.9597Z" fill="#990066"/>
</g>
<defs>
<filter id="filter0_d_887_2165" x="-1" y="0" width="52" height="52" filterUnits="userSpaceOnUse" color-interpolation-filters="sRGB">
<feFlood flood-opacity="0" result="BackgroundImageFix"/>
<feColorMatrix in="SourceAlpha" type="matrix" values="0 0 0 0 0 0 0 0 0 0 0 0 0 0 0 0 0 0 127 0" result="hardAlpha"/>
<feOffset dy="1"/>
<feGaussianBlur stdDeviation="4"/>
<feComposite in2="hardAlpha" operator="out"/>
<feColorMatrix type="matrix" values="0 0 0 0 0 0 0 0 0 0 0 0 0 0 0 0 0 0 0.15 0"/>
<feBlend mode="normal" in2="BackgroundImageFix" result="effect1_dropShadow_887_2165"/>
<feBlend mode="normal" in="SourceGraphic" in2="effect1_dropShadow_887_2165" result="shape"/>
</filter>
</defs>
</svg>
